<svg width="32" height="32" viewBox="0 0 32 32" fill="none" xmlns="http://www.w3.org/2000/svg">
<path d="M4.98939 27.4067C6.58939 29.3333 9.56539 29.3333 15.5201 29.3333H16.4801C22.4347 29.3333 25.4121 29.3333 27.0121 27.4067M4.98939 27.4067C3.38939 25.4787 3.93872 22.5533 5.03606 16.7C5.81606 12.54 6.20539 10.4587 7.68672 9.22933M27.0121 27.4067C28.6121 25.4787 28.0627 22.5533 26.9654 16.7C26.1854 12.54 25.7947 10.4587 24.3134 9.22933M24.3134 9.22933C22.8334 8 20.7147 8 16.4814 8H15.5187C11.2854 8 9.16806 8 7.68672 9.22933" stroke="white" stroke-width="1.5"/>
<path d="M12 8V6.66667C12 5.6058 12.4214 4.58839 13.1716 3.83824C13.9217 3.0881 14.9391 2.66667 16 2.66667C17.0609 2.66667 18.0783 3.0881 18.8284 3.83824C19.5786 4.58839 20 5.6058 20 6.66667V8" stroke="white" stroke-width="1.5" stroke-linecap="round"/>
</svg>
