<svg width="194" height="26" viewBox="0 0 194 26" fill="none" xmlns="http://www.w3.org/2000/svg">
<g clip-path="url(#clip0_7214_56650)">
<path d="M20.31 2.94065C20.2269 3.99951 20.1646 5.01684 20.1231 5.99265C20.1024 6.96847 20.092 7.71587 20.092 8.23495C20.092 8.69168 20.1024 9.12771 20.1231 9.54296C20.1439 9.95816 20.1646 10.3111 20.1854 10.6018H19.4691C19.1369 8.85781 18.7113 7.47714 18.1923 6.4598C17.694 5.44246 17.0919 4.72617 16.386 4.31094C15.6801 3.87494 14.8496 3.65694 13.8945 3.65694H13.1783V21.4395C13.1783 22.27 13.2613 22.8929 13.4274 23.3081C13.6143 23.7233 13.9465 24.0036 14.424 24.1489C14.9015 24.2735 15.597 24.3462 16.5106 24.3669V24.9898C15.8669 24.969 15.0053 24.9483 13.9257 24.9275C12.8668 24.9067 11.7561 24.8964 10.5934 24.8964C9.45153 24.8964 8.37189 24.9067 7.35454 24.9275C6.33725 24.9483 5.51713 24.969 4.89428 24.9898V24.3669C5.82856 24.3462 6.53449 24.2735 7.01199 24.1489C7.48949 24.0036 7.81133 23.7233 7.9774 23.3081C8.14352 22.8929 8.22658 22.27 8.22658 21.4395V3.65694H7.54143C6.58638 3.65694 5.75589 3.87494 5.04999 4.31094C4.34409 4.72617 3.74199 5.44246 3.24371 6.4598C2.74542 7.45638 2.30942 8.83704 1.93571 10.6018H1.21942C1.26094 10.3111 1.28171 9.95816 1.28171 9.54296C1.30247 9.12771 1.31285 8.69168 1.31285 8.23495C1.31285 7.71587 1.29209 6.96847 1.25056 5.99265C1.2298 5.01684 1.1779 3.99951 1.09485 2.94065C2.04989 2.96141 3.08799 2.98217 4.20913 3.00294C5.35104 3.0237 6.49296 3.03408 7.63485 3.03408C8.77674 3.03408 9.80449 3.03408 10.718 3.03408C11.6523 3.03408 12.68 3.03408 13.8011 3.03408C14.9431 3.03408 16.0849 3.0237 17.2268 3.00294C18.3688 2.98217 19.3965 2.96141 20.31 2.94065ZM24.9805 0.85408C25.8525 0.85408 26.5376 1.07208 27.0359 1.50808C27.5549 1.92332 27.8144 2.50465 27.8144 3.25208C27.8144 3.99951 27.5549 4.59122 27.0359 5.02722C26.5376 5.44246 25.8525 5.6501 24.9805 5.6501C24.1085 5.6501 23.4129 5.44246 22.8939 5.02722C22.3956 4.59122 22.1464 3.99951 22.1464 3.25208C22.1464 2.50465 22.3956 1.92332 22.8939 1.50808C23.4129 1.07208 24.1085 0.85408 24.9805 0.85408ZM27.4096 8.54638V22.0935C27.4096 22.9655 27.5549 23.5572 27.8456 23.8687C28.157 24.1801 28.6761 24.3358 29.4028 24.3358V24.9898C29.029 24.969 28.4477 24.9483 27.6587 24.9275C26.8698 24.886 26.0705 24.8652 25.2607 24.8652C24.451 24.8652 23.6309 24.886 22.8005 24.9275C21.97 24.9483 21.3471 24.969 20.9319 24.9898V24.3358C21.6585 24.3358 22.1672 24.1801 22.4579 23.8687C22.7693 23.5572 22.925 22.9655 22.925 22.0935V12.2835C22.925 11.3492 22.7797 10.6641 22.489 10.2281C22.2191 9.77133 21.7001 9.54296 20.9319 9.54296V8.88893C21.5963 8.95123 22.2399 8.98235 22.8628 8.98235C23.7347 8.98235 24.5444 8.95123 25.2919 8.88893C26.0601 8.80587 26.766 8.69168 27.4096 8.54638ZM41.1258 8.45296C41.9978 8.45296 42.7037 8.56714 43.2435 8.79551C43.7834 9.00311 44.2193 9.29378 44.5515 9.6675C44.8837 10.062 45.1225 10.581 45.2678 11.2246C45.4132 11.8475 45.4858 12.678 45.4858 13.7161V22.0935C45.4858 22.9655 45.6208 23.5572 45.8907 23.8687C46.1606 24.1801 46.6278 24.3358 47.2921 24.3358V24.9898C46.9184 24.969 46.3475 24.9483 45.5792 24.9275C44.8318 24.886 44.0948 24.8652 43.3681 24.8652C42.6207 24.8652 41.8836 24.886 41.157 24.9275C40.4303 24.9483 39.8801 24.969 39.5064 24.9898V24.3358C40.067 24.3358 40.4511 24.1801 40.6587 23.8687C40.887 23.5572 41.0013 22.9655 41.0013 22.0935V12.4081C41.0013 11.889 40.9597 11.4427 40.8767 11.0689C40.7936 10.6744 40.6276 10.3734 40.3784 10.1658C40.15 9.9374 39.797 9.82322 39.3195 9.82322C38.7797 9.82322 38.2814 9.97893 37.8247 10.2904C37.3679 10.6018 36.9942 11.0378 36.7035 11.5984C36.4336 12.1382 36.2987 12.7507 36.2987 13.4358V22.0935C36.2987 22.9655 36.4129 23.5572 36.6413 23.8687C36.8696 24.1801 37.2537 24.3358 37.7935 24.3358V24.9898C37.4613 24.969 36.9423 24.9483 36.2364 24.9275C35.5513 24.886 34.8454 24.8652 34.1187 24.8652C33.3297 24.8652 32.52 24.886 31.6895 24.9275C30.8591 24.9483 30.2362 24.969 29.821 24.9898V24.3358C30.5477 24.3358 31.0563 24.1801 31.347 23.8687C31.6584 23.5572 31.8141 22.9655 31.8141 22.0935V12.2835C31.8141 11.3492 31.6688 10.6641 31.3781 10.2281C31.1082 9.77133 30.5892 9.54296 29.821 9.54296V8.88893C30.4854 8.95123 31.129 8.98235 31.7518 8.98235C32.6238 8.98235 33.4335 8.95123 34.181 8.88893C34.9492 8.80587 35.6551 8.69168 36.2987 8.54638V11.3492C36.797 10.3111 37.4717 9.57408 38.323 9.13806C39.1742 8.68133 40.1085 8.45296 41.1258 8.45296ZM50.4998 8.45296C51.3718 8.45296 52.0775 8.56714 52.6173 8.79551C53.1576 9.00311 53.5933 9.29378 53.9255 9.6675C54.2576 10.062 54.4964 10.581 54.6418 11.2246C54.7872 11.8475 54.8596 12.678 54.8596 13.7161V22.0935C54.8596 22.9655 55.0051 23.5572 55.2959 23.8687C55.6071 24.1801 56.1265 24.3358 56.853 24.3358V24.9898C56.4586 24.969 55.8668 24.9483 55.078 24.9275C54.2887 24.886 53.5102 24.8652 52.7423 24.8652C51.9948 24.8652 51.2577 24.886 50.531 24.9275C49.8043 24.9483 49.2541 24.969 48.8804 24.9898V24.3358C49.441 24.3358 49.8251 24.1801 50.0327 23.8687C50.2611 23.5572 50.3753 22.9655 50.3753 22.0935V12.4081C50.3753 11.889 50.3234 11.4427 50.2195 11.0689C50.1365 10.6744 49.96 10.3734 49.6901 10.1658C49.441 9.9374 49.0465 9.82322 48.5067 9.82322C47.9669 9.82322 47.4686 9.98934 47.0118 10.3215C46.5551 10.6537 46.1813 11.1001 45.8907 11.6607C45.6208 12.2212 45.4755 12.8441 45.4547 13.5292L45.299 11.6295C45.8595 10.3838 46.5966 9.54296 47.5101 9.10694C48.4444 8.67092 49.441 8.45296 50.4998 8.45296ZM65.1142 8.45296C66.9413 8.45296 68.3739 8.99276 69.4122 10.0723C70.4499 11.152 70.9693 12.9167 70.9693 15.3666H60.7234L60.6607 14.775H67.0454C67.0658 13.7576 67.0035 12.8233 66.8581 11.9721C66.7132 11.1001 66.4846 10.4045 66.1734 9.88551C65.8617 9.36648 65.4464 9.10694 64.9275 9.10694C64.201 9.10694 63.578 9.56373 63.0591 10.4772C62.5607 11.3908 62.2596 12.9064 62.1556 15.0241L62.2494 15.2109C62.2285 15.4601 62.2076 15.7196 62.1867 15.9895C62.1867 16.2594 62.1867 16.5397 62.1867 16.8304C62.1867 18.263 62.3841 19.4256 62.7785 20.3184C63.1938 21.2111 63.7127 21.8652 64.3357 22.2804C64.9586 22.6748 65.5918 22.8721 66.2357 22.8721C66.6714 22.8721 67.1178 22.8098 67.5744 22.6852C68.052 22.5399 68.5295 22.2908 69.0071 21.9378C69.4846 21.5641 69.9311 21.0451 70.3464 20.3807L70.9071 20.5675C70.6576 21.3565 70.2632 22.1246 69.7234 22.8721C69.1836 23.6195 68.4984 24.232 67.6678 24.7095C66.8377 25.187 65.8408 25.4258 64.6785 25.4258C63.2668 25.4258 62.0209 25.1247 60.9413 24.5227C59.8617 23.9206 59.0102 23.007 58.3877 21.7821C57.7852 20.5571 57.4841 19 57.4841 17.1107C57.4841 15.1798 57.8061 13.5708 58.45 12.2835C59.1142 10.9963 60.0173 10.0412 61.1591 9.41837C62.3219 8.77475 63.6403 8.45296 65.1142 8.45296ZM90.7499 2.94065C90.6668 3.99951 90.6045 5.01684 90.5632 5.99265C90.5423 6.96847 90.5321 7.71587 90.5321 8.23495C90.5321 8.69168 90.5423 9.12771 90.5632 9.54296C90.5841 9.95816 90.6045 10.3111 90.6255 10.6018H89.9091C89.577 8.85781 89.1515 7.47714 88.6321 6.4598C88.1341 5.44246 87.5321 4.72617 86.826 4.31094C86.1204 3.87494 85.2897 3.65694 84.3346 3.65694H83.6183V21.4395C83.6183 22.27 83.7015 22.8929 83.8673 23.3081C84.0545 23.7233 84.3867 24.0036 84.8642 24.1489C85.3418 24.2735 86.0372 24.3462 86.9505 24.3669V24.9898C86.3071 24.969 85.4454 24.9483 84.3658 24.9275C83.3071 24.9067 82.1959 24.8964 81.0336 24.8964C79.8918 24.8964 78.8117 24.9067 77.7948 24.9275C76.7775 24.9483 75.9571 24.969 75.3341 24.9898V24.3669C76.2688 24.3462 76.9744 24.2735 77.452 24.1489C77.9295 24.0036 78.2515 23.7233 78.4173 23.3081C78.5836 22.8929 78.6668 22.27 78.6668 21.4395V3.65694H77.9816C77.0265 3.65694 76.1959 3.87494 75.4903 4.31094C74.7841 4.72617 74.1821 5.44246 73.6836 6.4598C73.1857 7.45638 72.7494 8.83704 72.376 10.6018H71.6596C71.701 10.3111 71.7219 9.95816 71.7219 9.54296C71.7423 9.12771 71.753 8.69168 71.753 8.23495C71.753 7.71587 71.7321 6.96847 71.6908 5.99265C71.6698 5.01684 71.6178 3.99951 71.5346 2.94065C72.4897 2.96141 73.528 2.98217 74.6489 3.00294C75.7913 3.0237 76.9331 3.03408 78.0749 3.03408C79.2168 3.03408 80.2443 3.03408 81.1581 3.03408C82.0923 3.03408 83.1198 3.03408 84.2413 3.03408C85.3831 3.03408 86.5249 3.0237 87.6668 3.00294C88.8086 2.98217 89.8367 2.96141 90.7499 2.94065ZM102.085 8.45296C102.749 8.45296 103.289 8.59827 103.705 8.88893C104.12 9.15883 104.421 9.51179 104.608 9.94781C104.815 10.3838 104.919 10.8406 104.919 11.3181C104.919 12.0863 104.691 12.7195 104.234 13.2178C103.798 13.6953 103.217 13.9341 102.49 13.9341C101.763 13.9341 101.192 13.7576 100.777 13.4046C100.383 13.0309 100.185 12.543 100.185 11.9409C100.185 11.3596 100.31 10.8821 100.559 10.5084C100.829 10.1139 101.161 9.78168 101.556 9.51179C101.265 9.42873 100.974 9.43913 100.684 9.54296C100.289 9.60521 99.9153 9.77133 99.5627 10.0412C99.2096 10.2904 98.9086 10.6122 98.6591 11.0066C98.4102 11.3804 98.2127 11.7956 98.0678 12.2523C97.9224 12.6884 97.8494 13.114 97.8494 13.5292V21.7821C97.8494 22.7787 98.0882 23.4534 98.5658 23.8064C99.0642 24.1593 99.8015 24.3358 100.777 24.3358V24.9898C100.299 24.969 99.604 24.9483 98.6903 24.9275C97.777 24.886 96.8219 24.8652 95.8255 24.8652C94.9948 24.8652 94.154 24.886 93.303 24.9275C92.4515 24.9483 91.8081 24.969 91.3719 24.9898V24.3358C92.0984 24.3358 92.6071 24.1801 92.8979 23.8687C93.2091 23.5572 93.3653 22.9655 93.3653 22.0935V12.2835C93.3653 11.3492 93.2198 10.6641 92.929 10.2281C92.6591 9.77133 92.1403 9.54296 91.3719 9.54296V8.88893C92.0362 8.95123 92.6801 8.98235 93.303 8.98235C94.1749 8.98235 94.9846 8.95123 95.7321 8.88893C96.4999 8.80587 97.2061 8.69168 97.8494 8.54638V11.4427C98.0989 10.8821 98.4311 10.3734 98.8464 9.91663C99.2617 9.4599 99.7387 9.10694 100.279 8.85781C100.819 8.58791 101.421 8.45296 102.085 8.45296ZM112.584 8.45296C114.411 8.45296 115.844 8.99276 116.882 10.0723C117.92 11.152 118.439 12.9167 118.439 15.3666H108.193L108.131 14.775H114.515C114.536 13.7576 114.473 12.8233 114.328 11.9721C114.183 11.1001 113.955 10.4045 113.643 9.88551C113.332 9.36648 112.916 9.10694 112.397 9.10694C111.67 9.10694 111.048 9.56373 110.529 10.4772C110.031 11.3908 109.73 12.9064 109.625 15.0241L109.719 15.2109C109.698 15.4601 109.678 15.7196 109.657 15.9895C109.657 16.2594 109.657 16.5397 109.657 16.8304C109.657 18.263 109.854 19.4256 110.248 20.3184C110.664 21.2111 111.183 21.8652 111.806 22.2804C112.429 22.6748 113.062 22.8721 113.705 22.8721C114.141 22.8721 114.588 22.8098 115.044 22.6852C115.522 22.5399 115.999 22.2908 116.477 21.9378C116.955 21.5641 117.401 21.0451 117.816 20.3807L118.376 20.5675C118.127 21.3565 117.733 22.1246 117.193 22.8721C116.654 23.6195 115.968 24.232 115.138 24.7095C114.307 25.187 113.311 25.4258 112.148 25.4258C110.736 25.4258 109.491 25.1247 108.411 24.5227C107.332 23.9206 106.48 23.007 105.857 21.7821C105.255 20.5571 104.954 19 104.954 17.1107C104.954 15.1798 105.276 13.5708 105.919 12.2835C106.584 10.9963 107.487 10.0412 108.629 9.41837C109.792 8.77475 111.11 8.45296 112.584 8.45296ZM123.606 25.2078C122.671 25.2078 121.893 25.0313 121.27 24.6784C120.647 24.3254 120.19 23.8583 119.9 23.2769C119.609 22.6748 119.464 22.0209 119.464 21.315C119.464 20.4222 119.661 19.6955 120.056 19.135C120.471 18.5744 121 18.1176 121.644 17.7646C122.287 17.4117 122.962 17.121 123.668 16.8927C124.395 16.6643 125.08 16.4463 125.723 16.2387C126.388 16.0103 126.917 15.7508 127.312 15.4601C127.727 15.1487 127.935 14.7542 127.935 14.2766V11.8475C127.935 11.3077 127.841 10.8302 127.655 10.415C127.488 9.97893 127.218 9.64674 126.845 9.41837C126.492 9.19 126.024 9.07582 125.443 9.07582C125.028 9.07582 124.613 9.13806 124.197 9.26265C123.782 9.36648 123.44 9.55332 123.17 9.82322C123.751 10.0309 124.197 10.3527 124.509 10.7887C124.841 11.2039 125.007 11.6814 125.007 12.2212C125.007 12.9271 124.758 13.4877 124.26 13.903C123.782 14.3182 123.211 14.5258 122.547 14.5258C121.799 14.5258 121.229 14.2974 120.834 13.8407C120.46 13.3631 120.273 12.7922 120.273 12.1278C120.273 11.5257 120.419 11.0274 120.71 10.633C121.021 10.2385 121.446 9.86475 121.986 9.51179C122.568 9.17959 123.263 8.9201 124.073 8.73322C124.904 8.54638 125.796 8.45296 126.751 8.45296C127.706 8.45296 128.568 8.55674 129.336 8.76439C130.104 8.95123 130.748 9.30419 131.267 9.82322C131.744 10.3008 132.056 10.8925 132.201 11.5984C132.346 12.2835 132.419 13.1555 132.419 14.2144V22.6852C132.419 23.2043 132.471 23.5676 132.575 23.7752C132.679 23.9621 132.855 24.0555 133.105 24.0555C133.291 24.0555 133.468 24.0036 133.634 23.8998C133.82 23.796 134.018 23.6714 134.225 23.5261L134.537 24.0555C134.101 24.4292 133.592 24.7199 133.011 24.9275C132.45 25.1144 131.817 25.2078 131.111 25.2078C130.343 25.2078 129.731 25.104 129.274 24.8964C128.817 24.668 128.485 24.3669 128.277 23.9932C128.09 23.6195 127.997 23.1835 127.997 22.6852C127.498 23.4742 126.896 24.097 126.191 24.5538C125.485 24.9898 124.623 25.2078 123.606 25.2078ZM125.817 23.2146C126.232 23.2146 126.606 23.1212 126.938 22.9344C127.291 22.7267 127.623 22.3945 127.935 21.9378V15.5535C127.748 15.865 127.488 16.1452 127.156 16.3944C126.824 16.6435 126.471 16.903 126.097 17.173C125.723 17.4221 125.36 17.7023 125.007 18.0138C124.675 18.3252 124.405 18.7093 124.197 19.1661C123.99 19.6229 123.886 20.173 123.886 20.8166C123.886 21.6264 124.063 22.2285 124.415 22.623C124.768 23.0174 125.236 23.2146 125.817 23.2146ZM140.659 8.45296C141.531 8.45296 142.289 8.56714 142.932 8.79551C143.597 9.00311 144.074 9.21077 144.365 9.41837C145.071 9.89587 145.507 9.58444 145.673 8.48408H146.327C146.285 9.06541 146.254 9.78168 146.234 10.633C146.213 11.4634 146.203 12.5742 146.203 13.9652H145.548C145.444 13.197 145.247 12.4392 144.957 11.6918C144.666 10.9444 144.24 10.3319 143.68 9.85439C143.14 9.37684 142.434 9.13806 141.562 9.13806C140.96 9.13806 140.451 9.31454 140.036 9.6675C139.621 9.9997 139.413 10.4876 139.413 11.1312C139.413 11.7541 139.6 12.3043 139.974 12.7818C140.347 13.2386 140.825 13.685 141.406 14.1209C142.009 14.5362 142.631 14.9826 143.275 15.4601C143.96 15.9791 144.583 16.4982 145.143 17.0172C145.704 17.5155 146.15 18.0657 146.483 18.6678C146.815 19.2699 146.981 19.9862 146.981 20.8166C146.981 21.7509 146.711 22.571 146.171 23.2769C145.632 23.9621 144.915 24.4915 144.022 24.8652C143.15 25.2389 142.174 25.4258 141.095 25.4258C140.472 25.4258 139.912 25.3635 139.413 25.2389C138.936 25.1144 138.52 24.9587 138.167 24.7718C137.897 24.6472 137.638 24.533 137.389 24.4292C137.161 24.3046 136.942 24.2009 136.735 24.1178C136.528 24.0555 136.34 24.1282 136.174 24.3358C136.029 24.5434 135.915 24.8341 135.832 25.2078H135.178C135.219 24.5434 135.25 23.7337 135.271 22.7787C135.292 21.8236 135.302 20.5571 135.302 18.9792H135.956C136.081 20.1004 136.309 21.0969 136.641 21.9689C136.973 22.8202 137.42 23.495 137.981 23.9932C138.562 24.4708 139.289 24.7095 140.161 24.7095C140.514 24.7095 140.856 24.6368 141.188 24.4915C141.52 24.3462 141.79 24.1074 141.998 23.7752C142.226 23.443 142.341 23.0174 142.341 22.4984C142.341 21.5848 142.04 20.827 141.438 20.225C140.856 19.6229 140.109 18.9688 139.195 18.263C138.531 17.7231 137.897 17.1937 137.295 16.6746C136.714 16.1348 136.237 15.5535 135.863 14.9307C135.489 14.287 135.302 13.5604 135.302 12.7507C135.302 11.8164 135.551 11.0274 136.05 10.3838C136.548 9.74015 137.202 9.26265 138.012 8.95123C138.842 8.61903 139.724 8.45296 140.659 8.45296ZM163.453 8.54638V21.5952C163.453 22.5295 163.598 23.2251 163.889 23.6818C164.18 24.1178 164.698 24.3358 165.446 24.3358V24.9898C164.802 24.9275 164.159 24.8964 163.515 24.8964C162.643 24.8964 161.833 24.9275 161.086 24.9898C160.339 25.0521 159.633 25.1663 158.968 25.3323V22.5295C158.47 23.5676 157.774 24.3151 156.882 24.7718C156.01 25.2078 155.034 25.4258 153.954 25.4258C153.082 25.4258 152.376 25.3116 151.837 25.0832C151.297 24.8549 150.871 24.5642 150.56 24.2112C150.207 23.8167 149.958 23.2977 149.812 22.6541C149.667 22.0105 149.594 21.18 149.594 20.1627V12.2835C149.594 11.3492 149.449 10.6641 149.158 10.2281C148.888 9.77133 148.369 9.54296 147.601 9.54296V8.88893C148.265 8.95123 148.909 8.98235 149.532 8.98235C150.404 8.98235 151.214 8.95123 151.961 8.88893C152.729 8.80587 153.435 8.69168 154.079 8.54638V21.4395C154.079 21.9586 154.12 22.4153 154.204 22.8098C154.307 23.2043 154.494 23.5157 154.764 23.7441C155.034 23.9517 155.429 24.0555 155.947 24.0555C156.508 24.0555 157.006 23.8998 157.442 23.5884C157.899 23.2769 158.262 22.8513 158.532 22.3115C158.823 21.7509 158.968 21.1281 158.968 20.443V12.2835C158.968 11.3492 158.823 10.6641 158.532 10.2281C158.262 9.77133 157.743 9.54296 156.975 9.54296V8.88893C157.639 8.95123 158.283 8.98235 158.906 8.98235C159.778 8.98235 160.588 8.95123 161.335 8.88893C162.103 8.80587 162.809 8.69168 163.453 8.54638ZM176.609 8.45296C177.273 8.45296 177.813 8.59827 178.229 8.88893C178.644 9.15883 178.945 9.51179 179.132 9.94781C179.339 10.3838 179.443 10.8406 179.443 11.3181C179.443 12.0863 179.215 12.7195 178.758 13.2178C178.322 13.6953 177.74 13.9341 177.014 13.9341C176.287 13.9341 175.716 13.7576 175.301 13.4046C174.907 13.0309 174.709 12.543 174.709 11.9409C174.709 11.3596 174.834 10.8821 175.083 10.5084C175.353 10.1139 175.685 9.78168 176.08 9.51179C175.789 9.42873 175.498 9.43913 175.208 9.54296C174.813 9.60521 174.439 9.77133 174.086 10.0412C173.734 10.2904 173.433 10.6122 173.183 11.0066C172.934 11.3804 172.737 11.7956 172.591 12.2523C172.446 12.6884 172.373 13.114 172.373 13.5292V21.7821C172.373 22.7787 172.612 23.4534 173.09 23.8064C173.588 24.1593 174.325 24.3358 175.301 24.3358V24.9898C174.823 24.969 174.128 24.9483 173.214 24.9275C172.301 24.886 171.346 24.8652 170.349 24.8652C169.519 24.8652 168.678 24.886 167.826 24.9275C166.975 24.9483 166.332 24.969 165.896 24.9898V24.3358C166.622 24.3358 167.131 24.1801 167.422 23.8687C167.733 23.5572 167.889 22.9655 167.889 22.0935V12.2835C167.889 11.3492 167.744 10.6641 167.453 10.2281C167.183 9.77133 166.664 9.54296 165.896 9.54296V8.88893C166.56 8.95123 167.204 8.98235 167.826 8.98235C168.698 8.98235 169.508 8.95123 170.256 8.88893C171.024 8.80587 171.73 8.69168 172.373 8.54638V11.4427C172.622 10.8821 172.955 10.3734 173.37 9.91663C173.785 9.4599 174.263 9.10694 174.803 8.85781C175.342 8.58791 175.944 8.45296 176.609 8.45296ZM187.108 8.45296C188.935 8.45296 190.368 8.99276 191.406 10.0723C192.444 11.152 192.963 12.9167 192.963 15.3666H182.717L182.655 14.775H189.039C189.06 13.7576 188.997 12.8233 188.852 11.9721C188.707 11.1001 188.478 10.4045 188.167 9.88551C187.856 9.36648 187.44 9.10694 186.921 9.10694C186.194 9.10694 185.571 9.56373 185.053 10.4772C184.554 11.3908 184.253 12.9064 184.149 15.0241L184.243 15.2109C184.222 15.4601 184.201 15.7196 184.181 15.9895C184.181 16.2594 184.181 16.5397 184.181 16.8304C184.181 18.263 184.378 19.4256 184.772 20.3184C185.188 21.2111 185.707 21.8652 186.33 22.2804C186.952 22.6748 187.586 22.8721 188.229 22.8721C188.665 22.8721 189.112 22.8098 189.568 22.6852C190.046 22.5399 190.523 22.2908 191.001 21.9378C191.479 21.5641 191.925 21.0451 192.34 20.3807L192.9 20.5675C192.651 21.3565 192.257 22.1246 191.717 22.8721C191.177 23.6195 190.492 24.232 189.662 24.7095C188.831 25.187 187.835 25.4258 186.672 25.4258C185.26 25.4258 184.014 25.1247 182.935 24.5227C181.855 23.9206 181.004 23.007 180.381 21.7821C179.779 20.5571 179.478 19 179.478 17.1107C179.478 15.1798 179.8 13.5708 180.443 12.2835C181.108 10.9963 182.011 10.0412 183.153 9.41837C184.315 8.77475 185.634 8.45296 187.108 8.45296Z" fill="white"/>
</g>
<defs>
<clipPath id="clip0_7214_56650">
<rect width="192.347" height="25" fill="white" transform="translate(0.826477 0.5)"/>
</clipPath>
</defs>
</svg>
