<svg width="36" height="36" viewBox="0 0 36 36" fill="none" xmlns="http://www.w3.org/2000/svg">
<path d="M28.5 31.125C28.8978 31.125 29.2794 30.967 29.5607 30.6857C29.842 30.4044 30 30.0228 30 29.625V27.756C30.006 23.547 24.039 20.25 18 20.25C11.961 20.25 6 23.547 6 27.756V29.625C6 30.0228 6.15804 30.4044 6.43934 30.6857C6.72064 30.967 7.10218 31.125 7.5 31.125H28.5ZM23.406 10.281C23.406 10.9909 23.2662 11.6939 22.9945 12.3498C22.7228 13.0057 22.3246 13.6016 21.8226 14.1036C21.3206 14.6056 20.7247 15.0038 20.0688 15.2755C19.4129 15.5472 18.7099 15.687 18 15.687C17.2901 15.687 16.5871 15.5472 15.9312 15.2755C15.2753 15.0038 14.6794 14.6056 14.1774 14.1036C13.6754 13.6016 13.2772 13.0057 13.0055 12.3498C12.7338 11.6939 12.594 10.9909 12.594 10.281C12.594 8.84724 13.1636 7.4722 14.1774 6.45838C15.1912 5.44456 16.5662 4.875 18 4.875C19.4338 4.875 20.8088 5.44456 21.8226 6.45838C22.8364 7.4722 23.406 8.84724 23.406 10.281Z" stroke="white" stroke-width="1.5" stroke-linecap="round" stroke-linejoin="round"/>
</svg>
